<svg width="1022" height="259" viewBox="0 0 1022 259" fill="none" xmlns="http://www.w3.org/2000/svg">
<path d="M258.254 196.16C245.149 196.16 236.003 192.632 230.819 185.575C225.634 178.518 223.042 169.157 223.042 157.491V66.9759H251.557V158.355C251.557 165.124 253.214 169.661 256.526 171.965C259.838 174.27 263.943 175.422 268.84 175.422H314.637C319.246 175.422 323.278 174.27 326.735 171.965C330.191 169.517 331.92 164.98 331.92 158.355V66.9759H360.435V157.491C360.435 165.268 359.355 172.037 357.195 177.798C355.034 183.559 351.434 188.095 346.393 191.408C341.353 194.576 334.368 196.16 325.439 196.16H258.254ZM402.695 83.61C397.367 83.61 393.478 82.5299 391.03 80.3696C388.582 78.2094 387.358 74.6089 387.358 69.5683C387.358 64.3836 388.51 60.7832 390.814 58.7669C393.262 56.6066 397.223 55.5265 402.695 55.5265C408.168 55.5265 412.129 56.6066 414.577 58.7669C417.025 60.7832 418.249 64.3836 418.249 69.5683C418.249 74.4649 417.025 78.0653 414.577 80.3696C412.129 82.5299 408.168 83.61 402.695 83.61ZM389.518 194V97.2198H415.873V194H389.518ZM450.588 194V84.2581L448.427 66.9759H583.228V87.7146H479.103V119.255H559.898V140.641H479.103V194H450.588ZM617.082 194C607.433 194 600.232 192.056 595.48 188.167C590.871 184.279 588.567 177.942 588.567 169.157V124.871C588.567 122.711 588.711 120.119 588.999 117.094C589.431 113.926 590.439 110.829 592.023 107.805C593.751 104.781 596.56 102.26 600.448 100.244C604.481 98.2279 610.025 97.2198 617.082 97.2198H676.706C683.907 97.2198 689.451 98.2279 693.34 100.244C697.228 102.26 699.965 104.781 701.549 107.805C703.277 110.829 704.285 113.926 704.573 117.094C705.005 120.119 705.221 122.711 705.221 124.871V166.349C705.221 168.941 705.005 171.821 704.573 174.99C704.285 178.158 703.277 181.182 701.549 184.063C699.821 186.943 697.012 189.319 693.124 191.192C689.235 193.064 683.763 194 676.706 194H617.082ZM625.291 175.422H668.497C675.554 175.422 679.082 172.541 679.082 166.781V124.439C679.082 118.678 675.554 115.798 668.497 115.798H625.291C618.378 115.798 614.922 118.678 614.922 124.439V166.781C614.922 172.541 618.378 175.422 625.291 175.422ZM728.909 194V97.2198H746.623L754.832 101.54C758.576 99.5241 762.609 97.9399 766.929 96.7877C771.25 95.6356 776.723 95.0595 783.347 95.0595C793.861 95.0595 802.358 96.2116 808.839 98.5159C815.463 100.82 819.856 102.548 822.016 103.701L814.455 122.495C812.727 121.631 809.847 120.551 805.814 119.255C801.926 117.814 797.317 116.518 791.988 115.366C786.66 114.214 780.827 113.638 774.49 113.638H772.114C765.201 113.638 760.665 115.006 758.504 117.742C756.488 120.479 755.408 125.015 755.264 131.352V194H728.909ZM837.133 194V97.2198H854.847L860.248 99.8121C864.425 99.092 869.537 98.5159 875.586 98.0839C881.635 97.5078 888.836 97.2198 897.189 97.2198H907.99C912.167 97.2198 916.199 97.7958 920.088 98.948C923.976 99.9561 926.856 101.468 928.729 103.485C932.473 101.612 937.658 100.1 944.283 98.948C950.908 97.7958 959.549 97.2198 970.206 97.2198H981.007C988.208 97.2198 993.753 98.2279 997.641 100.244C1001.53 102.26 1004.27 104.781 1005.85 107.805C1007.58 110.829 1008.59 113.926 1008.87 117.094C1009.31 120.119 1009.52 122.711 1009.52 124.871V194H983.168V124.439C983.168 118.678 979.711 115.798 972.798 115.798H942.554C940.25 115.798 938.666 116.086 937.802 116.662C936.938 117.238 936.506 118.534 936.506 120.551V194H910.15V124.439C910.15 118.678 906.694 115.798 899.781 115.798H869.969C867.233 115.798 865.433 116.086 864.569 116.662C863.849 117.094 863.488 118.39 863.488 120.551V194H837.133Z" fill="black"/>
<rect y="124.844" width="37.1399" height="34.5786" fill="black"/>
<rect y="55.6855" width="37.1399" height="34.5786" fill="black"/>
<rect x="37.1406" y="90.2637" width="97.3323" height="34.5786" fill="black"/>
<rect x="37.1406" y="159.422" width="97.3323" height="34.5786" fill="black"/>
</svg>
