<svg width="754" height="261" viewBox="0 0 754 261" fill="none" xmlns="http://www.w3.org/2000/svg">
<path d="M224.42 209V91.1669H246.59V109.885H247.817C249.965 103.543 253.75 98.5571 259.171 94.9259C264.643 91.2436 270.832 89.4025 277.736 89.4025C279.168 89.4025 280.856 89.4536 282.799 89.5559C284.794 89.6582 286.354 89.7861 287.479 89.9395V111.88C286.558 111.624 284.922 111.343 282.569 111.036C280.216 110.678 277.864 110.499 275.511 110.499C270.09 110.499 265.257 111.65 261.012 113.951C256.819 116.201 253.494 119.347 251.039 123.387C248.585 127.376 247.357 131.928 247.357 137.042V209H224.42ZM353.894 211.378C342.285 211.378 332.286 208.898 323.899 203.937C315.562 198.925 309.118 191.893 304.567 182.84C300.066 173.737 297.816 163.074 297.816 150.851C297.816 138.781 300.066 128.143 304.567 118.937C309.118 109.732 315.46 102.546 323.592 97.3808C331.775 92.2154 341.338 89.6326 352.283 89.6326C358.932 89.6326 365.376 90.7322 371.615 92.9314C377.854 95.1305 383.455 98.5826 388.415 103.288C393.376 107.993 397.289 114.104 400.153 121.622C403.017 129.089 404.449 138.167 404.449 148.856V156.988H310.781V139.804H381.971C381.971 133.769 380.744 128.424 378.289 123.77C375.834 119.065 372.382 115.357 367.933 112.647C363.534 109.936 358.369 108.581 352.436 108.581C345.992 108.581 340.367 110.166 335.559 113.337C330.803 116.457 327.121 120.548 324.512 125.612C321.955 130.624 320.677 136.07 320.677 141.952V155.377C320.677 163.253 322.058 169.952 324.819 175.476C327.632 180.999 331.545 185.219 336.557 188.134C341.569 190.998 347.424 192.43 354.124 192.43C358.471 192.43 362.435 191.816 366.015 190.589C369.595 189.31 372.689 187.418 375.297 184.912C377.906 182.406 379.9 179.312 381.281 175.629L402.991 179.542C401.252 185.935 398.133 191.535 393.632 196.342C389.183 201.098 383.582 204.806 376.832 207.466C370.132 210.074 362.486 211.378 353.894 211.378ZM484.903 91.1669V109.578H420.54V91.1669H484.903ZM437.8 62.9361H460.738V174.402C460.738 178.851 461.403 182.201 462.732 184.451C464.062 186.651 465.775 188.159 467.872 188.978C470.02 189.745 472.347 190.128 474.853 190.128C476.694 190.128 478.305 190 479.686 189.745C481.067 189.489 482.141 189.284 482.908 189.131L487.051 208.079C485.721 208.591 483.829 209.102 481.374 209.614C478.919 210.176 475.85 210.483 472.168 210.534C466.133 210.637 460.508 209.563 455.291 207.312C450.075 205.062 445.855 201.584 442.633 196.879C439.411 192.174 437.8 186.267 437.8 179.158V62.9361ZM544.567 211.608C537.1 211.608 530.35 210.227 524.315 207.466C518.28 204.653 513.498 200.587 509.969 195.268C506.491 189.949 504.753 183.429 504.753 175.706C504.753 169.057 506.031 163.585 508.588 159.289C511.145 154.993 514.598 151.592 518.945 149.086C523.292 146.58 528.15 144.688 533.52 143.409C538.89 142.131 544.363 141.159 549.937 140.494C556.995 139.676 562.723 139.011 567.121 138.5C571.52 137.937 574.716 137.042 576.711 135.815C578.705 134.587 579.702 132.593 579.702 129.831V129.294C579.702 122.594 577.81 117.403 574.026 113.721C570.292 110.039 564.718 108.197 557.302 108.197C549.579 108.197 543.493 109.911 539.044 113.337C534.646 116.713 531.603 120.472 529.915 124.614L508.358 119.705C510.915 112.545 514.649 106.765 519.558 102.367C524.519 97.9178 530.222 94.6958 536.666 92.7012C543.11 90.6555 549.886 89.6326 556.995 89.6326C561.7 89.6326 566.687 90.1952 571.954 91.3204C577.273 92.3944 582.234 94.3889 586.837 97.3041C591.491 100.219 595.301 104.387 598.267 109.808C601.234 115.178 602.717 122.159 602.717 130.751V209H580.316V192.89H579.396C577.912 195.856 575.688 198.771 572.721 201.635C569.755 204.499 565.945 206.878 561.291 208.77C556.637 210.662 551.062 211.608 544.567 211.608ZM549.554 193.197C555.895 193.197 561.317 191.944 565.817 189.438C570.369 186.932 573.821 183.659 576.174 179.618C578.577 175.527 579.779 171.154 579.779 166.5V151.311C578.961 152.129 577.375 152.896 575.023 153.612C572.721 154.277 570.088 154.865 567.121 155.377C564.155 155.837 561.265 156.272 558.453 156.681C555.64 157.039 553.287 157.346 551.395 157.601C546.945 158.164 542.88 159.11 539.197 160.44C535.566 161.77 532.651 163.687 530.452 166.193C528.304 168.648 527.23 171.921 527.23 176.013C527.23 181.69 529.327 185.986 533.52 188.901C537.714 191.765 543.059 193.197 549.554 193.197ZM635.109 209V51.8892H658.047V110.269H659.428C660.757 107.814 662.675 104.975 665.181 101.753C667.687 98.5315 671.165 95.7186 675.614 93.3149C680.064 90.8601 685.945 89.6326 693.259 89.6326C702.771 89.6326 711.261 92.0364 718.728 96.8438C726.195 101.651 732.05 108.581 736.295 117.633C740.591 126.686 742.739 137.579 742.739 150.314C742.739 163.048 740.617 173.967 736.372 183.071C732.127 192.123 726.297 199.104 718.881 204.014C711.465 208.872 703.001 211.301 693.489 211.301C686.329 211.301 680.473 210.1 675.921 207.696C671.421 205.292 667.892 202.479 665.335 199.257C662.778 196.035 660.809 193.171 659.428 190.665H657.51V209H635.109ZM657.587 150.083C657.587 158.369 658.788 165.631 661.192 171.87C663.596 178.11 667.074 182.994 671.625 186.523C676.177 190 681.752 191.739 688.349 191.739C695.202 191.739 700.93 189.924 705.533 186.293C710.136 182.61 713.613 177.624 715.966 171.333C718.37 165.043 719.572 157.959 719.572 150.083C719.572 142.31 718.395 135.329 716.043 129.14C713.741 122.952 710.264 118.068 705.61 114.488C701.007 110.908 695.253 109.118 688.349 109.118C681.7 109.118 676.075 110.831 671.472 114.258C666.92 117.684 663.468 122.466 661.115 128.603C658.763 134.741 657.587 141.901 657.587 150.083Z" fill="black"/>
<rect y="125.844" width="37.1399" height="34.5786" fill="black"/>
<rect y="56.6855" width="37.1399" height="34.5786" fill="black"/>
<rect x="37.1406" y="91.2637" width="97.3323" height="34.5786" fill="black"/>
<rect x="37.1406" y="160.422" width="97.3323" height="34.5786" fill="black"/>
</svg>
