<svg width="1091" height="259" viewBox="0 0 1091 259" fill="none" xmlns="http://www.w3.org/2000/svg">
<path d="M327.254 196.16C314.149 196.16 305.003 192.632 299.819 185.575C294.634 178.518 292.042 169.157 292.042 157.491V66.9759H320.557V158.355C320.557 165.124 322.214 169.661 325.526 171.965C328.838 174.27 332.943 175.422 337.84 175.422H383.637C388.246 175.422 392.278 174.27 395.735 171.965C399.191 169.517 400.92 164.98 400.92 158.355V66.9759H429.435V157.491C429.435 165.268 428.355 172.037 426.195 177.798C424.034 183.559 420.434 188.095 415.393 191.408C410.353 194.576 403.368 196.16 394.439 196.16H327.254ZM471.695 83.61C466.367 83.61 462.478 82.5299 460.03 80.3696C457.582 78.2094 456.358 74.6089 456.358 69.5683C456.358 64.3836 457.51 60.7832 459.814 58.7669C462.262 56.6066 466.223 55.5265 471.695 55.5265C477.168 55.5265 481.129 56.6066 483.577 58.7669C486.025 60.7832 487.249 64.3836 487.249 69.5683C487.249 74.4649 486.025 78.0653 483.577 80.3696C481.129 82.5299 477.168 83.61 471.695 83.61ZM458.518 194V97.2198H484.873V194H458.518ZM519.588 194V84.2581L517.427 66.9759H652.228V87.7146H548.103V119.255H628.898V140.641H548.103V194H519.588ZM686.082 194C676.433 194 669.232 192.056 664.48 188.167C659.871 184.279 657.567 177.942 657.567 169.157V124.871C657.567 122.711 657.711 120.119 657.999 117.094C658.431 113.926 659.439 110.829 661.023 107.805C662.751 104.781 665.56 102.26 669.448 100.244C673.481 98.2279 679.025 97.2198 686.082 97.2198H745.706C752.907 97.2198 758.451 98.2279 762.34 100.244C766.228 102.26 768.965 104.781 770.549 107.805C772.277 110.829 773.285 113.926 773.573 117.094C774.005 120.119 774.221 122.711 774.221 124.871V166.349C774.221 168.941 774.005 171.821 773.573 174.99C773.285 178.158 772.277 181.182 770.549 184.063C768.821 186.943 766.012 189.319 762.124 191.192C758.235 193.064 752.763 194 745.706 194H686.082ZM694.291 175.422H737.497C744.554 175.422 748.082 172.541 748.082 166.781V124.439C748.082 118.678 744.554 115.798 737.497 115.798H694.291C687.378 115.798 683.922 118.678 683.922 124.439V166.781C683.922 172.541 687.378 175.422 694.291 175.422ZM797.909 194V97.2198H815.623L823.832 101.54C827.576 99.5241 831.609 97.9399 835.929 96.7877C840.25 95.6356 845.723 95.0595 852.347 95.0595C862.861 95.0595 871.358 96.2116 877.839 98.5159C884.463 100.82 888.856 102.548 891.016 103.701L883.455 122.495C881.727 121.631 878.847 120.551 874.814 119.255C870.926 117.814 866.317 116.518 860.988 115.366C855.66 114.214 849.827 113.638 843.49 113.638H841.114C834.201 113.638 829.665 115.006 827.504 117.742C825.488 120.479 824.408 125.015 824.264 131.352V194H797.909ZM906.133 194V97.2198H923.847L929.248 99.8121C933.425 99.092 938.537 98.5159 944.586 98.0839C950.635 97.5078 957.836 97.2198 966.189 97.2198H976.99C981.167 97.2198 985.199 97.7958 989.088 98.948C992.976 99.9561 995.856 101.468 997.729 103.485C1001.47 101.612 1006.66 100.1 1013.28 98.948C1019.91 97.7958 1028.55 97.2198 1039.21 97.2198H1050.01C1057.21 97.2198 1062.75 98.2279 1066.64 100.244C1070.53 102.26 1073.27 104.781 1074.85 107.805C1076.58 110.829 1077.59 113.926 1077.87 117.094C1078.31 120.119 1078.52 122.711 1078.52 124.871V194H1052.17V124.439C1052.17 118.678 1048.71 115.798 1041.8 115.798H1011.55C1009.25 115.798 1007.67 116.086 1006.8 116.662C1005.94 117.238 1005.51 118.534 1005.51 120.551V194H979.15V124.439C979.15 118.678 975.694 115.798 968.781 115.798H938.969C936.233 115.798 934.433 116.086 933.569 116.662C932.849 117.094 932.488 118.39 932.488 120.551V194H906.133Z" fill="white"/>
<g filter="url(#filter0_d_1367_4562)">
<rect y="33" width="161.684" height="161.684" fill="black"/>
</g>
<g filter="url(#filter1_i_1367_4562)">
<rect x="27.6641" y="59.6641" width="29" height="27" fill="white"/>
</g>
<g filter="url(#filter2_i_1367_4562)">
<rect x="27.6641" y="113.664" width="29" height="27" fill="white"/>
</g>
<g filter="url(#filter3_i_1367_4562)">
<rect x="56.6641" y="86.6641" width="76" height="27" fill="white"/>
</g>
<g filter="url(#filter4_i_1367_4562)">
<rect x="56.6641" y="140.664" width="76" height="27" fill="white"/>
</g>
<defs>
<filter id="filter0_d_1367_4562" x="0" y="33" width="194.024" height="194.02" filterUnits="userSpaceOnUse" color-interpolation-filters="sRGB">
<feFlood flood-opacity="0" result="BackgroundImageFix"/>
<feColorMatrix in="SourceAlpha" type="matrix" values="0 0 0 0 0 0 0 0 0 0 0 0 0 0 0 0 0 0 127 0" result="hardAlpha"/>
<feOffset dx="26.9474" dy="26.9474"/>
<feGaussianBlur stdDeviation="2.69474"/>
<feComposite in2="hardAlpha" operator="out"/>
<feColorMatrix type="matrix" values="0 0 0 0 0 0 0 0 0 0 0 0 0 0 0 0 0 0 0.25 0"/>
<feBlend mode="normal" in2="BackgroundImageFix" result="effect1_dropShadow_1367_4562"/>
<feBlend mode="normal" in="SourceGraphic" in2="effect1_dropShadow_1367_4562" result="shape"/>
</filter>
<filter id="filter1_i_1367_4562" x="27.6641" y="59.6641" width="29" height="31" filterUnits="userSpaceOnUse" color-interpolation-filters="sRGB">
<feFlood flood-opacity="0" result="BackgroundImageFix"/>
<feBlend mode="normal" in="SourceGraphic" in2="BackgroundImageFix" result="shape"/>
<feColorMatrix in="SourceAlpha" type="matrix" values="0 0 0 0 0 0 0 0 0 0 0 0 0 0 0 0 0 0 127 0" result="hardAlpha"/>
<feOffset dy="4"/>
<feGaussianBlur stdDeviation="2"/>
<feComposite in2="hardAlpha" operator="arithmetic" k2="-1" k3="1"/>
<feColorMatrix type="matrix" values="0 0 0 0 0 0 0 0 0 0 0 0 0 0 0 0 0 0 0.25 0"/>
<feBlend mode="normal" in2="shape" result="effect1_innerShadow_1367_4562"/>
</filter>
<filter id="filter2_i_1367_4562" x="27.6641" y="113.664" width="29" height="31" filterUnits="userSpaceOnUse" color-interpolation-filters="sRGB">
<feFlood flood-opacity="0" result="BackgroundImageFix"/>
<feBlend mode="normal" in="SourceGraphic" in2="BackgroundImageFix" result="shape"/>
<feColorMatrix in="SourceAlpha" type="matrix" values="0 0 0 0 0 0 0 0 0 0 0 0 0 0 0 0 0 0 127 0" result="hardAlpha"/>
<feOffset dy="4"/>
<feGaussianBlur stdDeviation="2"/>
<feComposite in2="hardAlpha" operator="arithmetic" k2="-1" k3="1"/>
<feColorMatrix type="matrix" values="0 0 0 0 0 0 0 0 0 0 0 0 0 0 0 0 0 0 0.25 0"/>
<feBlend mode="normal" in2="shape" result="effect1_innerShadow_1367_4562"/>
</filter>
<filter id="filter3_i_1367_4562" x="56.6641" y="86.6641" width="76" height="31" filterUnits="userSpaceOnUse" color-interpolation-filters="sRGB">
<feFlood flood-opacity="0" result="BackgroundImageFix"/>
<feBlend mode="normal" in="SourceGraphic" in2="BackgroundImageFix" result="shape"/>
<feColorMatrix in="SourceAlpha" type="matrix" values="0 0 0 0 0 0 0 0 0 0 0 0 0 0 0 0 0 0 127 0" result="hardAlpha"/>
<feOffset dy="4"/>
<feGaussianBlur stdDeviation="2"/>
<feComposite in2="hardAlpha" operator="arithmetic" k2="-1" k3="1"/>
<feColorMatrix type="matrix" values="0 0 0 0 0 0 0 0 0 0 0 0 0 0 0 0 0 0 0.25 0"/>
<feBlend mode="normal" in2="shape" result="effect1_innerShadow_1367_4562"/>
</filter>
<filter id="filter4_i_1367_4562" x="56.6641" y="140.664" width="76" height="31" filterUnits="userSpaceOnUse" color-interpolation-filters="sRGB">
<feFlood flood-opacity="0" result="BackgroundImageFix"/>
<feBlend mode="normal" in="SourceGraphic" in2="BackgroundImageFix" result="shape"/>
<feColorMatrix in="SourceAlpha" type="matrix" values="0 0 0 0 0 0 0 0 0 0 0 0 0 0 0 0 0 0 127 0" result="hardAlpha"/>
<feOffset dy="4"/>
<feGaussianBlur stdDeviation="2"/>
<feComposite in2="hardAlpha" operator="arithmetic" k2="-1" k3="1"/>
<feColorMatrix type="matrix" values="0 0 0 0 0 0 0 0 0 0 0 0 0 0 0 0 0 0 0.25 0"/>
<feBlend mode="normal" in2="shape" result="effect1_innerShadow_1367_4562"/>
</filter>
</defs>
</svg>
