<svg width="1078" height="259" viewBox="0 0 1078 259" fill="none" xmlns="http://www.w3.org/2000/svg">
<path d="M314.254 196.16C301.149 196.16 292.003 192.632 286.819 185.575C281.634 178.518 279.042 169.157 279.042 157.491V66.9759H307.557V158.355C307.557 165.124 309.214 169.661 312.526 171.965C315.838 174.27 319.943 175.422 324.84 175.422H370.637C375.246 175.422 379.278 174.27 382.735 171.965C386.191 169.517 387.92 164.98 387.92 158.355V66.9759H416.435V157.491C416.435 165.268 415.355 172.037 413.195 177.798C411.034 183.559 407.434 188.095 402.393 191.408C397.353 194.576 390.368 196.16 381.439 196.16H314.254ZM458.695 83.61C453.367 83.61 449.478 82.5299 447.03 80.3696C444.582 78.2094 443.358 74.6089 443.358 69.5683C443.358 64.3836 444.51 60.7832 446.814 58.7669C449.262 56.6066 453.223 55.5265 458.695 55.5265C464.168 55.5265 468.129 56.6066 470.577 58.7669C473.025 60.7832 474.249 64.3836 474.249 69.5683C474.249 74.4649 473.025 78.0653 470.577 80.3696C468.129 82.5299 464.168 83.61 458.695 83.61ZM445.518 194V97.2198H471.873V194H445.518ZM506.588 194V84.2581L504.427 66.9759H639.228V87.7146H535.103V119.255H615.898V140.641H535.103V194H506.588ZM673.082 194C663.433 194 656.232 192.056 651.48 188.167C646.871 184.279 644.567 177.942 644.567 169.157V124.871C644.567 122.711 644.711 120.119 644.999 117.094C645.431 113.926 646.439 110.829 648.023 107.805C649.751 104.781 652.56 102.26 656.448 100.244C660.481 98.2279 666.025 97.2198 673.082 97.2198H732.706C739.907 97.2198 745.451 98.2279 749.34 100.244C753.228 102.26 755.965 104.781 757.549 107.805C759.277 110.829 760.285 113.926 760.573 117.094C761.005 120.119 761.221 122.711 761.221 124.871V166.349C761.221 168.941 761.005 171.821 760.573 174.99C760.285 178.158 759.277 181.182 757.549 184.063C755.821 186.943 753.012 189.319 749.124 191.192C745.235 193.064 739.763 194 732.706 194H673.082ZM681.291 175.422H724.497C731.554 175.422 735.082 172.541 735.082 166.781V124.439C735.082 118.678 731.554 115.798 724.497 115.798H681.291C674.378 115.798 670.922 118.678 670.922 124.439V166.781C670.922 172.541 674.378 175.422 681.291 175.422ZM784.909 194V97.2198H802.623L810.832 101.54C814.576 99.5241 818.609 97.9399 822.929 96.7877C827.25 95.6356 832.723 95.0595 839.347 95.0595C849.861 95.0595 858.358 96.2116 864.839 98.5159C871.463 100.82 875.856 102.548 878.016 103.701L870.455 122.495C868.727 121.631 865.847 120.551 861.814 119.255C857.926 117.814 853.317 116.518 847.988 115.366C842.66 114.214 836.827 113.638 830.49 113.638H828.114C821.201 113.638 816.665 115.006 814.504 117.742C812.488 120.479 811.408 125.015 811.264 131.352V194H784.909ZM893.133 194V97.2198H910.847L916.248 99.8121C920.425 99.092 925.537 98.5159 931.586 98.0839C937.635 97.5078 944.836 97.2198 953.189 97.2198H963.99C968.167 97.2198 972.199 97.7958 976.088 98.948C979.976 99.9561 982.856 101.468 984.729 103.485C988.473 101.612 993.658 100.1 1000.28 98.948C1006.91 97.7958 1015.55 97.2198 1026.21 97.2198H1037.01C1044.21 97.2198 1049.75 98.2279 1053.64 100.244C1057.53 102.26 1060.27 104.781 1061.85 107.805C1063.58 110.829 1064.59 113.926 1064.87 117.094C1065.31 120.119 1065.52 122.711 1065.52 124.871V194H1039.17V124.439C1039.17 118.678 1035.71 115.798 1028.8 115.798H998.554C996.25 115.798 994.666 116.086 993.802 116.662C992.938 117.238 992.506 118.534 992.506 120.551V194H966.15V124.439C966.15 118.678 962.694 115.798 955.781 115.798H925.969C923.233 115.798 921.433 116.086 920.569 116.662C919.849 117.094 919.488 118.39 919.488 120.551V194H893.133Z" fill="black"/>
<g filter="url(#filter0_d_1367_4563)">
<rect y="34" width="161.684" height="161.684" fill="black"/>
</g>
<g filter="url(#filter1_i_1367_4563)">
<rect x="27.6641" y="60.6641" width="29" height="27" fill="white"/>
</g>
<g filter="url(#filter2_i_1367_4563)">
<rect x="27.6641" y="114.664" width="29" height="27" fill="white"/>
</g>
<g filter="url(#filter3_i_1367_4563)">
<rect x="56.6641" y="87.6641" width="76" height="27" fill="white"/>
</g>
<g filter="url(#filter4_i_1367_4563)">
<rect x="56.6641" y="141.664" width="76" height="27" fill="white"/>
</g>
<defs>
<filter id="filter0_d_1367_4563" x="0" y="34" width="194.024" height="194.02" filterUnits="userSpaceOnUse" color-interpolation-filters="sRGB">
<feFlood flood-opacity="0" result="BackgroundImageFix"/>
<feColorMatrix in="SourceAlpha" type="matrix" values="0 0 0 0 0 0 0 0 0 0 0 0 0 0 0 0 0 0 127 0" result="hardAlpha"/>
<feOffset dx="26.9474" dy="26.9474"/>
<feGaussianBlur stdDeviation="2.69474"/>
<feComposite in2="hardAlpha" operator="out"/>
<feColorMatrix type="matrix" values="0 0 0 0 0 0 0 0 0 0 0 0 0 0 0 0 0 0 0.25 0"/>
<feBlend mode="normal" in2="BackgroundImageFix" result="effect1_dropShadow_1367_4563"/>
<feBlend mode="normal" in="SourceGraphic" in2="effect1_dropShadow_1367_4563" result="shape"/>
</filter>
<filter id="filter1_i_1367_4563" x="27.6641" y="60.6641" width="29" height="31" filterUnits="userSpaceOnUse" color-interpolation-filters="sRGB">
<feFlood flood-opacity="0" result="BackgroundImageFix"/>
<feBlend mode="normal" in="SourceGraphic" in2="BackgroundImageFix" result="shape"/>
<feColorMatrix in="SourceAlpha" type="matrix" values="0 0 0 0 0 0 0 0 0 0 0 0 0 0 0 0 0 0 127 0" result="hardAlpha"/>
<feOffset dy="4"/>
<feGaussianBlur stdDeviation="2"/>
<feComposite in2="hardAlpha" operator="arithmetic" k2="-1" k3="1"/>
<feColorMatrix type="matrix" values="0 0 0 0 0 0 0 0 0 0 0 0 0 0 0 0 0 0 0.25 0"/>
<feBlend mode="normal" in2="shape" result="effect1_innerShadow_1367_4563"/>
</filter>
<filter id="filter2_i_1367_4563" x="27.6641" y="114.664" width="29" height="31" filterUnits="userSpaceOnUse" color-interpolation-filters="sRGB">
<feFlood flood-opacity="0" result="BackgroundImageFix"/>
<feBlend mode="normal" in="SourceGraphic" in2="BackgroundImageFix" result="shape"/>
<feColorMatrix in="SourceAlpha" type="matrix" values="0 0 0 0 0 0 0 0 0 0 0 0 0 0 0 0 0 0 127 0" result="hardAlpha"/>
<feOffset dy="4"/>
<feGaussianBlur stdDeviation="2"/>
<feComposite in2="hardAlpha" operator="arithmetic" k2="-1" k3="1"/>
<feColorMatrix type="matrix" values="0 0 0 0 0 0 0 0 0 0 0 0 0 0 0 0 0 0 0.25 0"/>
<feBlend mode="normal" in2="shape" result="effect1_innerShadow_1367_4563"/>
</filter>
<filter id="filter3_i_1367_4563" x="56.6641" y="87.6641" width="76" height="31" filterUnits="userSpaceOnUse" color-interpolation-filters="sRGB">
<feFlood flood-opacity="0" result="BackgroundImageFix"/>
<feBlend mode="normal" in="SourceGraphic" in2="BackgroundImageFix" result="shape"/>
<feColorMatrix in="SourceAlpha" type="matrix" values="0 0 0 0 0 0 0 0 0 0 0 0 0 0 0 0 0 0 127 0" result="hardAlpha"/>
<feOffset dy="4"/>
<feGaussianBlur stdDeviation="2"/>
<feComposite in2="hardAlpha" operator="arithmetic" k2="-1" k3="1"/>
<feColorMatrix type="matrix" values="0 0 0 0 0 0 0 0 0 0 0 0 0 0 0 0 0 0 0.25 0"/>
<feBlend mode="normal" in2="shape" result="effect1_innerShadow_1367_4563"/>
</filter>
<filter id="filter4_i_1367_4563" x="56.6641" y="141.664" width="76" height="31" filterUnits="userSpaceOnUse" color-interpolation-filters="sRGB">
<feFlood flood-opacity="0" result="BackgroundImageFix"/>
<feBlend mode="normal" in="SourceGraphic" in2="BackgroundImageFix" result="shape"/>
<feColorMatrix in="SourceAlpha" type="matrix" values="0 0 0 0 0 0 0 0 0 0 0 0 0 0 0 0 0 0 127 0" result="hardAlpha"/>
<feOffset dy="4"/>
<feGaussianBlur stdDeviation="2"/>
<feComposite in2="hardAlpha" operator="arithmetic" k2="-1" k3="1"/>
<feColorMatrix type="matrix" values="0 0 0 0 0 0 0 0 0 0 0 0 0 0 0 0 0 0 0.25 0"/>
<feBlend mode="normal" in2="shape" result="effect1_innerShadow_1367_4563"/>
</filter>
</defs>
</svg>
